<?xml version="1.0" encoding="iso-8859-1"?>
<!-- Generator: Adobe Illustrator 19.1.1, SVG Export Plug-In . SVG Version: 6.00 Build 0)  -->
<svg xmlns="http://www.w3.org/2000/svg" xmlns:xlink="http://www.w3.org/1999/xlink" version="1.1" id="Layer_1" x="0px" y="0px" viewBox="0 0 48 48" style="enable-background:new 0 0 48 48;" xml:space="preserve" >
<g>
	<path style="fill:#455A64;" stroke='#000000' stroke-width='2' d="M24,4C12.954,4,4,12.954,4,24h40C44,12.954,35.046,4,24,4z"/>
</g>
<g>
	<path style="fill:#E4E8EA;" stroke='#000000' stroke-width='2' d="M24,44c11.046,0,20-8.954,20-20H4C4,35.046,12.954,44,24,44z"/>
</g>
<g>
	<path style="fill:#CFD8DC;" d="M24,44c11.046,0,20-8.954,20-20c0,0-0.16,16-20,16S4,24,4,24C4,35.046,12.954,44,24,44z"/>
</g>
<path style="fill:#FFC400;"  d="M24,4c-4.968,0-9.503,1.822-13,4.82V24h5v-5c0-4.4,3.6-8,8-8h0c4.4,0,8,3.6,8,8v5h5V8.82  C33.503,5.822,28.968,4,24,4z"/>
<path style="fill:#37474F;" d="M4,24c0,0.338,0.034,0.667,0.05,1H43.95c0.017-0.333,0.05-0.662,0.05-1s-0.034-0.667-0.05-1H4.05  C4.034,23.333,4,23.662,4,24z"/>
<circle style="fill:#FFFFFF;" cx="24" cy="24" r="5"/>
<path style="fill:#37474F;" d="M24,20c2.206,0,4,1.794,4,4s-1.794,4-4,4s-4-1.794-4-4S21.794,20,24,20 M24,18c-3.314,0-6,2.686-6,6  c0,3.313,2.686,6,6,6c3.314,0,6-2.688,6-6C30,20.686,27.314,18,24,18L24,18z"/>
<circle style="fill:#37474F;" cx="24" cy="24" r="2"/>
</svg>
