<svg width='24' height='24' viewBox='0 0 24 24' xmlns='http://www.w3.org/2000/svg' xmlns:xlink='http://www.w3.org/1999/xlink'><rect width='24' height='24' stroke='none' fill='#000000' opacity='0'/>


<g transform="matrix(0.42 0 0 0.42 12 12)" >
<g style="" >
<g transform="matrix(1 0 0 1 0 -10)" >
<path style="stroke: none; stroke-width: 1; stroke-dasharray: none; stroke-linecap: butt; stroke-dashoffset: 0; stroke-linejoin: miter; stroke-miterlimit: 4; fill: rgb(69,90,100); fill-rule: nonzero; opacity: 1;" transform=" translate(-24, -14)" d="M 24 4 C 12.954 4 4 12.954 4 24 L 44 24 C 44 12.954 35.046 4 24 4 z" stroke-linecap="round" />
</g>
<g transform="matrix(1 0 0 1 0 10)" >
<path style="stroke: none; stroke-width: 1; stroke-dasharray: none; stroke-linecap: butt; stroke-dashoffset: 0; stroke-linejoin: miter; stroke-miterlimit: 4; fill: rgb(228,232,234); fill-rule: nonzero; opacity: 1;" transform=" translate(-24, -34)" d="M 24 44 C 35.046 44 44 35.046 44 24 L 4 24 C 4 35.046 12.954 44 24 44 z" stroke-linecap="round" />
</g>
<g transform="matrix(1 0 0 1 0 10)" >
<path style="stroke: none; stroke-width: 1; stroke-dasharray: none; stroke-linecap: butt; stroke-dashoffset: 0; stroke-linejoin: miter; stroke-miterlimit: 4; fill: rgb(207,216,220); fill-rule: nonzero; opacity: 1;" transform=" translate(-24, -34)" d="M 24 44 C 35.046 44 44 35.046 44 24 C 44 24 43.84 40 24 40 C 4.159999999999997 40 4 24 4 24 C 4 35.046 12.954 44 24 44 z" stroke-linecap="round" />
</g>
<g transform="matrix(1 0 0 1 0 -10)" >
<path style="stroke: none; stroke-width: 1; stroke-dasharray: none; stroke-linecap: butt; stroke-dashoffset: 0; stroke-linejoin: miter; stroke-miterlimit: 4; fill: rgb(255,196,0); fill-rule: nonzero; opacity: 1;" transform=" translate(-24, -14)" d="M 24 4 C 19.032 4 14.497 5.822 11 8.82 L 11 24 L 16 24 L 16 19 C 16 14.6 19.6 11 24 11 L 24 11 C 28.4 11 32 14.6 32 19 L 32 24 L 37 24 L 37 8.82 C 33.503 5.822 28.968 4 24 4 z" stroke-linecap="round" />
</g>
<g transform="matrix(1 0 0 1 0 0)" >
<path style="stroke: none; stroke-width: 1; stroke-dasharray: none; stroke-linecap: butt; stroke-dashoffset: 0; stroke-linejoin: miter; stroke-miterlimit: 4; fill: rgb(55,71,79); fill-rule: nonzero; opacity: 1;" transform=" translate(-24, -24)" d="M 4 24 C 4 24.338 4.034 24.667 4.05 25 L 43.95 25 C 43.967000000000006 24.667 44 24.338 44 24 C 44 23.662 43.966 23.333 43.95 23 L 4.05 23 C 4.034 23.333 4 23.662 4 24 z" stroke-linecap="round" />
</g>
<g transform="matrix(1 0 0 1 0 0)" >
<path style="stroke: none; stroke-width: 1; stroke-dasharray: none; stroke-linecap: butt; stroke-dashoffset: 0; stroke-linejoin: miter; stroke-miterlimit: 4; fill: rgb(255,255,255); fill-rule: nonzero; opacity: 1;" transform=" translate(-24, -24)" d="M 24 19 C 21.238576250846034 19 19 21.238576250846034 19 24 C 19 26.761423749153966 21.238576250846034 29 24 29 C 26.761423749153966 29 29 26.761423749153966 29 24 C 29 21.238576250846034 26.761423749153966 19 24 19 Z" stroke-linecap="round" />
</g>
<g transform="matrix(1 0 0 1 0 0)" >
<path style="stroke: none; stroke-width: 1; stroke-dasharray: none; stroke-linecap: butt; stroke-dashoffset: 0; stroke-linejoin: miter; stroke-miterlimit: 4; fill: rgb(55,71,79); fill-rule: nonzero; opacity: 1;" transform=" translate(-24, -24)" d="M 24 20 C 26.206 20 28 21.794 28 24 C 28 26.206 26.206 28 24 28 C 21.794 28 20 26.206 20 24 C 20 21.794 21.794 20 24 20 M 24 18 C 20.686 18 18 20.686 18 24 C 18 27.313 20.686 30 24 30 C 27.314 30 30 27.312 30 24 C 30 20.686 27.314 18 24 18 L 24 18 z" stroke-linecap="round" />
</g>
<g transform="matrix(1 0 0 1 0 0)" >
<path style="stroke: none; stroke-width: 1; stroke-dasharray: none; stroke-linecap: butt; stroke-dashoffset: 0; stroke-linejoin: miter; stroke-miterlimit: 4; fill: rgb(55,71,79); fill-rule: nonzero; opacity: 1;" transform=" translate(-24, -24)" d="M 24 22 C 22.895430500338414 22 22 22.895430500338414 22 24 C 22 25.104569499661586 22.895430500338414 26 24 26 C 25.104569499661586 26 26 25.104569499661586 26 24 C 26 22.895430500338414 25.104569499661586 22 24 22 Z" stroke-linecap="round" />
</g>
</g>
</g>
</svg>